<?xml version="1.0" standalone="no"?><!DOCTYPE svg PUBLIC "-//W3C//DTD SVG 1.1//EN" "http://www.w3.org/Graphics/SVG/1.1/DTD/svg11.dtd"><svg t="1585201715928" class="icon" viewBox="0 0 1024 1024" version="1.1" xmlns="http://www.w3.org/2000/svg" p-id="1510" xmlns:xlink="http://www.w3.org/1999/xlink" width="32" height="32"><defs><style type="text/css"></style></defs><path d="M967.111111 173.511111H56.888889c-8.533333 0-14.222222-2.844444-19.911111-5.688889-5.688889-5.688889-8.533333-14.222222-8.533334-22.755555s2.844444-14.222222 8.533334-19.911111c5.688889-5.688889 11.377778-8.533333 19.911111-8.533334h910.222222c8.533333 0 14.222222 2.844444 19.911111 8.533334 5.688889 5.688889 8.533333 11.377778 8.533334 19.911111 0 8.533333-2.844444 14.222222-8.533334 19.911111-5.688889 5.688889-11.377778 8.533333-19.911111 8.533333zM674.133333 56.888889H349.866667c-8.533333 0-14.222222 0-19.911111-5.688889s-8.533333-11.377778-8.533334-19.911111 2.844444-14.222222 8.533334-19.911111c5.688889-8.533333 11.377778-11.377778 19.911111-11.377778h321.422222c8.533333 0 14.222222 2.844444 19.911111 8.533333s8.533333 11.377778 8.533333 19.911111-2.844444 14.222222-8.533333 19.911112-8.533333 8.533333-17.066667 8.533333zM381.155556 819.2V321.422222c0-8.533333 2.844444-14.222222 8.533333-19.911111s11.377778-8.533333 19.911111-8.533333 14.222222 2.844444 19.911111 8.533333c5.688889 5.688889 8.533333 11.377778 8.533333 19.911111v497.777778c0 8.533333-2.844444 14.222222-8.533333 19.911111-5.688889 5.688889-11.377778 8.533333-19.911111 8.533333s-14.222222-2.844444-19.911111-8.533333c-5.688889-5.688889-8.533333-11.377778-8.533333-19.911111z m204.8 0V321.422222c0-8.533333 2.844444-14.222222 8.533333-19.911111 5.688889-5.688889 11.377778-8.533333 19.911111-8.533333 8.533333 0 14.222222 2.844444 19.911111 8.533333s8.533333 11.377778 8.533333 19.911111v497.777778c0 8.533333-2.844444 14.222222-8.533333 19.911111-5.688889 5.688889-11.377778 8.533333-19.911111 8.533333-8.533333 0-14.222222-2.844444-19.911111-8.533333-5.688889-5.688889-8.533333-11.377778-8.533333-19.911111zM153.6 273.066667c5.688889-5.688889 11.377778-8.533333 19.911111-8.533334 8.533333 0 14.222222 2.844444 19.911111 8.533334s8.533333 11.377778 8.533334 19.911111v614.4c0 17.066667 5.688889 31.288889 17.066666 42.666666 14.222222 11.377778 28.444444 17.066667 45.511111 17.066667h497.777778c17.066667 0 31.288889-5.688889 42.666667-17.066667 11.377778-11.377778 17.066667-25.6 17.066666-42.666666V292.977778c0-8.533333 2.844444-14.222222 8.533334-19.911111 5.688889-5.688889 14.222222-8.533333 19.911111-8.533334 8.533333 0 14.222222 2.844444 19.911111 8.533334s8.533333 11.377778 8.533333 19.911111v642.844444c0 25.6-8.533333 45.511111-25.6 62.577778-17.066667 17.066667-36.977778 25.6-62.577777 25.6H233.244444c-25.6 0-45.511111-8.533333-62.577777-25.6-17.066667-17.066667-25.6-36.977778-25.6-62.577778V292.977778c0-8.533333 2.844444-14.222222 8.533333-19.911111z" fill="#8a8a8a" p-id="1511"></path></svg>