<?xml version="1.0" standalone="no"?><!DOCTYPE svg PUBLIC "-//W3C//DTD SVG 1.1//EN" "http://www.w3.org/Graphics/SVG/1.1/DTD/svg11.dtd"><svg t="1585032810804" class="icon" viewBox="0 0 1024 1024" version="1.1" xmlns="http://www.w3.org/2000/svg" p-id="2389" xmlns:xlink="http://www.w3.org/1999/xlink" width="32" height="32"><defs><style type="text/css"></style></defs><path d="M135.63636347 401.13636347a32.72727305 32.72727305 0 1 1-65.45454521 0V214.46818174A144.28636348 144.28636348 0 0 1 214.46818174 70.18181826h187.36363652a32.72727305 32.72727305 0 1 1 0 65.45454522h-187.36363652A78.83181826 78.83181826 0 0 0 135.63636347 214.46818174V401.13636347zM624.58181826 135.63636347a32.72727305 32.72727305 0 1 1 0-65.45454521h184.90909043A144.28636348 144.28636348 0 0 1 953.81818174 214.46818174v186.75a32.72727305 32.72727305 0 1 1-65.45454522 0V214.46818174A78.83181826 78.83181826 0 0 0 809.53181826 135.63636347h-184.90909131zM888.36363653 624.78636347a32.72727305 32.72727305 0 1 1 65.45454521 0v184.74545479a144.28636348 144.28636348 0 0 1-144.28636348 144.28636348h-183.19090957a32.72727305 32.72727305 0 1 1 0-65.45454522h183.19090957a78.83181826 78.83181826 0 0 0 78.83181827-78.83181826v-184.74545478zM403.18181826 888.36363653a32.72727305 32.72727305 0 1 1 0 65.45454521H214.42727305A144.28636348 144.28636348 0 0 1 70.18181826 809.53181826v-185.56363652a32.72727305 32.72727305 0 1 1 65.45454522 0v185.56363652c0 43.52727305 35.30454521 78.83181826 78.83181826 78.83181827H403.18181826zM248.09545479 544.72727305h535.5a32.72727305 32.72727305 0 1 0 0-65.4545461H248.09545479a32.72727305 32.72727305 0 1 0 0 65.4545461z" p-id="2390" fill="#ffffff"></path></svg>